<svg width="10" height="10" fill="none" xmlns="http://www.w3.org/2000/svg">
  <path fill-rule="evenodd" clip-rule="evenodd" d="M4.036 1.2a2.047 2.047 0 0 0-2.053 2.054c0 1.139.914 2.054 2.053 2.054 1.14 0 2.054-.915 2.054-2.054 0-1.14-.914-2.054-2.054-2.054Zm0 .6c.808 0 1.454.646 1.454 1.454 0 .808-.646 1.454-1.454 1.454a1.447 1.447 0 0 1-1.453-1.454c0-.808.646-1.454 1.453-1.454Zm4.19 1.446a1.62 1.62 0 0 0-1.618-1.618.3.3 0 0 0 0 .6 1.019 1.019 0 0 1 0 2.037.3.3 0 0 0 0 .6c.894 0 1.619-.724 1.619-1.619ZM7.92 5.798a4.644 4.644 0 0 0-.685-.099.3.3 0 0 0-.041.599c.202.014.404.043.602.087.311.061.517.164.572.28a.327.327 0 0 1 0 .28c-.055.117-.26.22-.567.283a.3.3 0 1 0 .12.588c.479-.098.829-.274.99-.612a.93.93 0 0 0 0-.796c-.163-.34-.516-.516-.991-.61ZM1 7.408c0-1.05 1.103-1.426 3.036-1.426l.128.001c1.858.016 2.91.391 2.91 1.416 0 1.003-1.008 1.39-2.785 1.423l-.253.002C2.1 8.824 1 8.456 1 7.407Zm5.473-.009c0-.539-.828-.817-2.437-.817-1.606 0-2.436.282-2.436.825 0 .54.828.817 2.436.817s2.437-.282 2.437-.825Z" fill="#BDBDBD"/>
</svg>
